<svg width="220" height="69" viewBox="0 0 220 69" fill="none" xmlns="http://www.w3.org/2000/svg">
<path d="M39.9704 64.0682C41.5242 63.5245 42.6164 61.9971 42.6034 60.3467C42.6034 59.6606 42.4279 59.0264 42.1223 58.4633C41.8623 57.9261 42.0768 57.2141 42.5579 56.897C45.4315 54.9036 47.2128 51.6934 47.2258 48.0172C47.2258 50.3536 44.2027 51.305 42.8374 49.4475C42.1353 48.5349 42.4019 47.2664 42.4604 46.1985C42.6359 44.1144 43.247 42.2181 44.0012 40.3217C45.1454 36.7814 44.4563 32.6328 42.2328 29.6685C43.1235 33.1311 40.0289 36.4125 36.5247 35.8883C31.2457 35.4288 27.9105 29.7526 30.0364 24.9697C30.225 24.5102 30.4785 24.0895 30.7451 23.6753C32.988 20.2126 33.3261 15.3261 31.5772 11.5529C30.9921 10.239 30.1925 9.04812 29.2238 7.99963C27.3449 5.935 26.3177 2.9319 26.6558 0C24.8029 3.0031 24.6144 7.2618 26.2007 10.4202C26.5908 11.1451 26.8963 11.9088 27.0589 12.7243C27.553 14.9572 26.9874 17.4684 25.6741 19.2353C22.495 23.8047 15.3306 20.8793 16.3643 15.3585C14.7325 17.559 14.3489 20.8534 15.4801 23.4293C15.6946 23.9536 16.0392 24.4325 16.2538 24.9632C16.9949 26.5813 17.3395 28.5229 17.1509 30.3675C17.0989 30.9629 16.9949 31.5454 16.8389 32.115C16.8259 32.1668 16.8064 32.225 16.7934 32.2833C16.7804 32.2833 16.7674 32.2897 16.7544 32.2962C14.869 36.2184 8.99833 35.5258 8.14017 31.2024C7.51604 27.8822 4.86353 25.248 1.51537 24.6396C3.75181 25.9923 4.99355 28.9501 4.26541 31.5713C3.74531 33.6489 3.45925 35.8236 3.46575 38.0629C3.46575 38.8461 3.49826 39.6098 3.56977 40.38C3.75831 42.5546 4.2069 44.6516 4.88953 46.6386C5.35112 47.6029 5.37713 48.8327 4.59697 49.6223C3.77131 50.5543 2.23051 50.6643 1.28133 49.8553C1.04728 49.6546 0.845741 49.4216 0.702713 49.1498C0.644202 49.0462 0.592192 48.9362 0.559685 48.8327C0.462166 48.5738 0.416658 48.3084 0.410156 48.0172C0.410156 51.7063 2.26952 54.9618 5.10407 56.91C5.59167 57.253 5.7672 58.0038 5.46164 58.528C4.34343 60.5603 5.46164 63.3109 7.60706 64.0423C10.0515 60.9098 15.181 62.0942 15.9872 65.9904C15.9872 65.9969 15.9872 66.0034 15.9872 66.0098C16.1432 67.0195 16.8844 67.848 17.8596 68.1586H17.8726C18.6137 66.3982 21.2532 66.9936 21.1557 68.9029C21.4418 68.9417 21.7278 68.9741 22.0204 68.9935C21.8709 66.4888 25.5636 66.4823 25.414 68.9935C25.8041 68.9612 26.1942 68.9159 26.5778 68.8576C26.5128 67.026 29.0483 66.4241 29.8284 68.0809C29.8284 68.0809 29.8284 68.0809 29.8349 68.0809C30.6151 67.8156 31.2197 67.1943 31.4602 66.4176C31.6553 65.7768 31.7853 65.0973 32.1494 64.5471C33.7812 61.7317 37.994 61.4534 39.9704 64.0617V64.0682ZM6.14428 57.5831C6.14428 57.5831 6.13127 57.5636 6.13127 57.5507C6.14428 57.5507 6.15078 57.5572 6.16378 57.5636C6.16378 57.5636 6.15078 57.5766 6.14428 57.5831ZM15.4866 56.321C7.61356 56.321 11.4818 47.6483 6.7749 47.6483C7.87361 46.8586 11.0007 46.9493 12.7561 49.0074C14.5114 51.0656 22.5665 56.2368 22.5665 51.8552C22.5665 51.8552 23.3596 56.321 15.4866 56.321ZM24.7899 62.5925C24.7899 62.5925 24.4714 60.8515 23.7042 60.8515C22.9371 60.8515 22.6185 62.5925 22.6185 62.5925C22.6185 62.5925 21.0387 62.5019 21.0387 60.5926C21.0387 58.6833 22.859 56.0491 22.859 56.0491C22.9306 56.541 23.2621 56.7999 23.7042 56.7999C24.1463 56.7999 24.4714 56.541 24.5429 56.0491C24.5429 56.0491 26.3632 58.6833 26.3632 60.5926C26.3632 62.5019 24.7834 62.5925 24.7834 62.5925H24.7899ZM32.1364 56.321C24.2633 56.321 25.05 51.8552 25.05 51.8552C25.05 56.2368 33.0985 51.0656 34.8604 49.0074C36.6222 46.9493 39.7428 46.8586 40.8416 47.6483C36.1346 47.6483 40.0029 56.321 32.1299 56.321H32.1364Z" fill="#A93BFF"/>
<path d="M70.3769 45.3118V41.1243H82.6188L84.4456 36.4902H64.7793V57.1948H70.3769V49.4281H79.3421L80.9675 45.3118H70.3769Z" fill="#A93BFF"/>
<path d="M88.3586 36.4902L84.5554 46.4315L83.4047 49.4281L80.4336 57.1948H86.2002L87.3639 53.9651H97.1679L98.3316 57.1948H104.098L96.1732 36.4902H88.3521H88.3586ZM88.8527 49.7971L91.7718 41.7133H92.786L95.6856 49.7971H88.8527Z" fill="#A93BFF"/>
<path d="M122.556 49.5058H122.062L113.318 36.4902H106.855V57.1948H112.304V44.1792H112.824L121.685 57.1948H127.998V36.4902H122.556V49.5058Z" fill="#A93BFF"/>
<path d="M131.496 57.1948H137.094V49.4281H148.75V45.3118H137.094V41.1243H149.394V36.4902H131.496V57.1948Z" fill="#A93BFF"/>
<path d="M167.617 48.2955C167.617 51.3504 166.083 53.2014 162.917 53.2014C159.75 53.2014 158.262 51.3504 158.262 48.2955V36.4902H152.645V48.4444C152.645 54.8777 156.259 57.8873 162.917 57.8873C169.574 57.8873 173.189 54.8842 173.189 48.4249V36.4967H167.617V48.302V48.2955Z" fill="#A93BFF"/>
<path d="M196.638 44.0562C196.638 39.0273 193.569 36.4902 187.946 36.4902H176.686V57.1948H182.283V51.3051H188.498L191.69 57.1948H197.21L193.277 50.1724C195.279 48.988 196.644 46.9169 196.644 44.0627L196.638 44.0562ZM187.601 47.0852H182.277V41.1178H187.601C189.851 41.1178 191.066 42.1534 191.066 44.1015C191.066 46.0497 189.851 47.0852 187.601 47.0852Z" fill="#A93BFF"/>
<path d="M213.209 36.4902L208.008 45.2665H207.488L202.313 36.4902H196.396L204.965 50.6126V57.1948H210.53V50.6384L219.099 36.4902H213.209Z" fill="#A93BFF"/>
</svg>
